P1
15 10
000000000000000
000000000000000
000000000000000
000001111100000
000001100000000
000000000000010
000000000000000
000000000000000
000000000000000
000000000000000