P1
69 1
111101001111011000100111001000110111111110101111101101101000100101101
