P1
80 1
1101001110000001111100100001000101111001100001100010100100010110110011
0011110101
