P1
71 1
0000011000100100010010000100110000100010100110110001011011001001110101
0
