P1
80 2
0001111011001110001011111001000001101111000000110101111010110001000111
1100010110
1011001011011000111011110111001010110100001001101000011111111000100001
0000100010
