P1
80 10
0000000110001101001011010001011101010111001101011111010001101010010100
1110110110
0100000000100011110010101001000011001010011101000010101111111000010011
0010101000
1000001101110110101100011101111110011111100111111011101000011010101001
0110101000
1101101111010111010010010110110101111100110110011111110110110101000100
1101100101
1101001000011010001011000011010011011001001101001100100001110011101000
1011101000
0000001111101110011001101101110101001101011000001001010110110110011111
0010100111
1001100100101100011111100000001111110011110000011101110010100001011111
0000100011
0011111000101000101001011011001011010000010101101001101000001010011011
1000010000
1111111110100101000110111111011011111001101010001101100011000101111100
0111100101
1011110000101011000001101011010010011101101111011010110011100011101111
0101000010
