P1
# Image of width 80 and height 10
80 10
000000000000000000000000000000000000000000000000000000000000000000000
00000000000
010000000000000000000010000000000000000000000000000000000000000000001
10000001000
000000000000000000110000000000000000000000000000000000000000001010100
10000001000
000110000000000001001000000000000000000000000000000000011000010100010
00000000100
000100000000000000101100000000000000000000000100000000000000001110000
00000001000
000000000000000001100110110000000000000000000000000000011000011000000
00000000000
000000000000000001111110000000000000000000000000000000001000000100000
00000000000
000000000000000010100100000000000000000000010110000000100000101000000
00000010000
000000000000010000011000000000000000000000000000000000000000010000000
00000000100
000000000000000000000000000000000000000000000000000000000000000000000
00000000000
