P1
70 1
0100111001000000101100001101000001001011100110011010110101100010001000
