P2
# feep.pgm
3 3
100
100 50 50 
0 0 0
0 0 0 